<svg width="50" height="51" viewBox="0 0 50 51" fill="none" xmlns="http://www.w3.org/2000/svg">
<rect y="0.5" width="50" height="50" rx="24" fill="#064089"/>
<path fill-rule="evenodd" clip-rule="evenodd" d="M38.1247 25.5C38.1247 25.2513 38.026 25.0129 37.8501 24.8371C37.6743 24.6612 37.4359 24.5625 37.1872 24.5625H15.0753L20.976 18.6637C21.0631 18.5765 21.1323 18.4731 21.1795 18.3592C21.2266 18.2453 21.2509 18.1232 21.2509 18C21.2509 17.8767 21.2266 17.7546 21.1795 17.6407C21.1323 17.5269 21.0631 17.4234 20.976 17.3362C20.8888 17.249 20.7853 17.1799 20.6714 17.1327C20.5576 17.0856 20.4355 17.0613 20.3122 17.0613C20.189 17.0613 20.0669 17.0856 19.953 17.1327C19.8391 17.1799 19.7356 17.249 19.6485 17.3362L12.1485 24.8362C12.0612 24.9233 11.9919 25.0268 11.9446 25.1407C11.8974 25.2545 11.873 25.3766 11.873 25.5C11.873 25.6233 11.8974 25.7454 11.9446 25.8593C11.9919 25.9732 12.0612 26.0766 12.1485 26.1637L19.6485 33.6637C19.7356 33.7509 19.8391 33.82 19.953 33.8672C20.0669 33.9144 20.189 33.9386 20.3122 33.9386C20.4355 33.9386 20.5576 33.9144 20.6714 33.8672C20.7853 33.82 20.8888 33.7509 20.976 33.6637C21.0631 33.5765 21.1323 33.4731 21.1795 33.3592C21.2266 33.2453 21.2509 33.1232 21.2509 33C21.2509 32.8767 21.2266 32.7546 21.1795 32.6407C21.1323 32.5269 21.0631 32.4234 20.976 32.3362L15.0753 26.4375H37.1872C37.4359 26.4375 37.6743 26.3387 37.8501 26.1629C38.026 25.9871 38.1247 25.7486 38.1247 25.5Z" fill="#F1F7F9"/>
</svg>
