<svg width="115" height="113" viewBox="0 0 115 113" fill="none" xmlns="http://www.w3.org/2000/svg">
<g filter="url(#filter0_d_212_5793)">
<path d="M71.4838 25.8667C68.0772 27.9081 46.9565 31.3104 43.5499 34.0323C40.1433 36.7542 38.7798 42.1978 38.7807 45.6002C38.7816 49.0026 43.5499 53.7657 46.9565 55.8072C50.3631 57.8486 61.9454 55.8071 65.352 59.2095C68.7585 62.6119 40.1433 65.3338 36.0555 68.7361C31.9676 72.1383 36.0555 82.3454 36.0555 82.3454C36.0555 82.3454 27.8797 71.458 26.5171 69.4165C25.1544 67.3751 12.8914 71.458 8.1216 68.7361C3.35181 66.0141 4.03371 61.9314 4.03371 61.9314V10.2159C4.03371 10.2159 4.03371 3.41126 12.8908 0.689395C21.7479 -2.03247 55.1323 4.09173 59.9015 5.45266C64.6707 6.81359 69.4398 11.5768 71.4838 15.6597C73.5277 19.7425 74.8904 23.8252 71.4838 25.8667Z" fill="url(#paint0_linear_212_5793)"/>
<path d="M53.7696 42.1979C53.7705 36.7542 78.9782 36.0737 78.9782 36.0737C78.9782 36.0737 95.3289 34.0322 102.824 34.0323C110.32 34.0323 110.999 38.7955 111 43.5588C111.001 48.3221 110.32 73.4994 109.637 78.9431C108.955 84.3867 104.188 88.4696 100.099 91.1915C96.0102 93.9133 80.3418 89.8306 76.9343 91.1915C73.5269 92.5524 66.0342 106.842 67.3959 104.801C68.7577 102.759 68.7577 94.5938 65.352 92.5524C61.9463 90.511 49.6826 84.3868 48.3191 79.6235C46.9556 74.8602 75.8601 74.8602 77.6156 68.0556C79.3711 61.251 79.6604 64.6533 78.9782 54.4463C78.2961 44.2392 53.7687 47.6416 53.7696 42.1979Z" fill="url(#paint1_linear_212_5793)"/>
</g>
<defs>
<filter id="filter0_d_212_5793" x="0" y="0" width="115" height="113" filterUnits="userSpaceOnUse" color-interpolation-filters="sRGB">
<feFlood flood-opacity="0" result="BackgroundImageFix"/>
<feColorMatrix in="SourceAlpha" type="matrix" values="0 0 0 0 0 0 0 0 0 0 0 0 0 0 0 0 0 0 127 0" result="hardAlpha"/>
<feOffset dy="4"/>
<feGaussianBlur stdDeviation="2"/>
<feComposite in2="hardAlpha" operator="out"/>
<feColorMatrix type="matrix" values="0 0 0 0 0 0 0 0 0 0 0 0 0 0 0 0 0 0 0.25 0"/>
<feBlend mode="normal" in2="BackgroundImageFix" result="effect1_dropShadow_212_5793"/>
<feBlend mode="normal" in="SourceGraphic" in2="effect1_dropShadow_212_5793" result="shape"/>
</filter>
<linearGradient id="paint0_linear_212_5793" x1="35" y1="8" x2="57.5" y2="105" gradientUnits="userSpaceOnUse">
<stop stop-color="#B7CAE1"/>
<stop offset="1" stop-color="#064089"/>
</linearGradient>
<linearGradient id="paint1_linear_212_5793" x1="35" y1="8" x2="57.5" y2="105" gradientUnits="userSpaceOnUse">
<stop stop-color="#B7CAE1"/>
<stop offset="1" stop-color="#064089"/>
</linearGradient>
</defs>
</svg>
